<?xml version="1.0" encoding="utf-8"?>
<!-- Generator: Adobe Illustrator 23.0.1, SVG Export Plug-In . SVG Version: 6.00 Build 0)  -->
<svg version="1.1" id="Layer_1" xmlns="http://www.w3.org/2000/svg" xmlns:xlink="http://www.w3.org/1999/xlink" x="0px" y="0px"
	 viewBox="0 0 240 90" enable-background="new 0 0 240 90" xml:space="preserve">
<path fill="#3C8BD9" d="M35,25.8c0.5-1.4,1.3-2.7,2.4-3.8c4.4-4.3,11.8-3.2,14.8,2.2c2.3,4.1,4.7,8.2,7,12.2
	c3.9,6.8,7.8,13.5,11.7,20.3c3.2,5.7-0.3,12.9-6.7,13.8c-3.9,0.6-7.6-1.2-9.7-4.8c-3.4-6-6.9-11.9-10.3-17.8
	c-0.1-0.1-0.2-0.2-0.2-0.4c-0.4-0.3-0.5-0.7-0.7-1.1c-1.5-2.7-3.1-5.3-4.6-8c-1-1.7-2-3.4-3-5.1c-0.9-1.5-1.3-3.2-1.2-5
	C34.5,27.5,34.6,26.6,35,25.8"/>
<path fill="#FABC04" d="M35,25.8c-0.2,0.8-0.4,1.6-0.4,2.5c-0.1,1.9,0.4,3.7,1.4,5.3c2.5,4.3,5,8.6,7.5,12.9
	c0.2,0.4,0.4,0.8,0.6,1.1c-1.4,2.4-2.7,4.7-4.1,7c-1.9,3.3-3.8,6.6-5.7,9.9c-0.1,0-0.1,0-0.1-0.1c0-0.2,0-0.3,0.1-0.5
	c0.9-3.4,0.2-6.4-2.2-9c-1.4-1.6-3.2-2.4-5.3-2.7c-2.7-0.4-5.1,0.3-7.3,2c-0.4,0.3-0.6,0.7-1.1,1c-0.1,0-0.1,0-0.2-0.1
	c1.1-1.9,2.2-3.8,3.2-5.6c4.5-7.8,9-15.6,13.5-23.3C34.9,25.9,35,25.9,35,25.8"/>
<path fill="#34A852" d="M18.2,55.1c0.4-0.4,0.8-0.8,1.3-1.2c5.5-4.3,13.8-1.2,15,5.7c0.3,1.7,0.1,3.2-0.4,4.8c0,0.1,0,0.2-0.1,0.4
	c-0.2,0.4-0.4,0.7-0.6,1.1c-2,3.3-5,5-8.9,4.7c-4.5-0.3-8-3.7-8.6-8.1c-0.3-2.2,0.1-4.2,1.2-6c0.2-0.4,0.5-0.8,0.7-1.2
	C18.1,55.3,18,55.1,18.2,55.1"/>
<path fill="#757575" d="M90.2,33.2c-6.6,0-12,5.3-12,11.8s5.5,11.8,12,11.8c3.6,0,6.2-1.2,8.3-3.3c2.2-2.2,2.8-5.1,2.8-7.5
	c0-0.8-0.1-1.5-0.2-2H90.2v3.2h7.7c-0.2,1.8-0.8,3.1-1.7,4.1c-1.1,1.1-2.9,2.4-6,2.4c-4.8,0-8.5-3.8-8.5-8.6s3.7-8.6,8.5-8.6
	c2.6,0,4.5,1,5.8,2.3l2.3-2.3C96.3,34.6,93.8,33.2,90.2,33.2z M109.9,41.6c-4.1,0-7.6,3.2-7.6,7.7c0,4.4,3.4,7.7,7.6,7.7
	c4.2,0,7.6-3.3,7.6-7.7S114,41.6,109.9,41.6 M109.9,54c-2.3,0-4.2-1.9-4.2-4.7s2-4.7,4.2-4.7s4.2,1.9,4.2,4.7
	C114.1,52,112.2,54,109.9,54 M126.3,41.6c-4.2,0-7.6,3.2-7.6,7.7c0,4.4,3.4,7.7,7.6,7.7c4.1,0,7.6-3.3,7.6-7.7
	S130.5,41.6,126.3,41.6 M126.3,54c-2.3,0-4.2-1.9-4.2-4.7s2-4.7,4.2-4.7s4.2,1.9,4.2,4.7C130.6,52,128.6,54,126.3,54 M142.7,41.6
	c-3.8,0-7.2,3.3-7.2,7.6c0,4.2,3.4,7.6,7.2,7.6c1.8,0,3.2-0.8,4-1.7h0.1v1.1c0,2.9-1.5,4.5-4,4.5c-2,0-3.3-1.5-3.8-2.7l-2.9,1.2
	c0.8,2,3,4.5,6.7,4.5c3.9,0,7.2-2.3,7.2-7.9V42.1h-3.1v1.2h-0.1C145.9,42.4,144.5,41.6,142.7,41.6 M143,53.8c-2.3,0-4.2-1.9-4.2-4.6
	s1.9-4.7,4.2-4.7c2.3,0,4,2,4,4.7S145.2,53.8,143,53.8 M152.3,34.1h3.3v22.5h-3.3V34.1z M164.6,41.6c-4,0-7.3,3.1-7.3,7.7
	c0,4.3,3.3,7.7,7.6,7.7c3.6,0,5.6-2.2,6.4-3.4l-2.6-1.7c-0.9,1.3-2.1,2.1-3.8,2.1c-1.7,0-3-0.8-3.7-2.3l10.3-4.2l-0.3-0.9
	C170.5,44.8,168.5,41.6,164.6,41.6 M160.6,49.1c-0.1-3,2.3-4.5,4-4.5c1.3,0,2.5,0.6,2.9,1.6L160.6,49.1z"/>
<path fill="#757575" d="M177.3,56.2l7.7-20.4h3l7.7,20.4h-2.9l-2-5.5h-8.6l-2,5.5H177.3z M183.1,48.3h6.8l-3.3-9.2h-0.1L183.1,48.3z
	"/>
<path fill="#757575" d="M198.3,54.5c-1.3-1.5-1.9-3.2-1.9-5.3c0-2,0.6-3.8,1.9-5.3c1.3-1.5,2.9-2.2,4.7-2.2c1,0,2,0.2,2.8,0.6
	c0.9,0.5,1.5,1,2,1.7h0.1l-0.1-1.9v-6.5h2.6v20.4h-2.5v-1.9h-0.1c-0.5,0.7-1.1,1.3-2,1.7s-1.8,0.6-2.8,0.6
	C201.2,56.7,199.6,56,198.3,54.5 M206.6,52.9c0.9-0.9,1.3-2.2,1.3-3.7c0-1.5-0.4-2.7-1.3-3.6c-0.8-0.9-1.9-1.4-3.1-1.4
	c-1.3,0-2.3,0.5-3.1,1.4c-0.9,0.9-1.3,2.2-1.3,3.6s0.4,2.7,1.3,3.6c0.9,0.9,1.9,1.4,3.1,1.4C204.7,54.3,205.8,53.8,206.6,52.9"/>
<path fill="#757575" d="M222.5,55.4c-1,0.8-2.4,1.3-4,1.3c-1.4,0-2.6-0.3-3.7-1.1c-1-0.8-1.8-1.7-2.3-2.9l2.3-1
	c0.3,0.8,0.8,1.5,1.5,2c0.6,0.5,1.4,0.7,2.2,0.7c0.8,0,1.5-0.2,2.1-0.5c0.6-0.3,0.8-0.8,0.8-1.3c0-0.9-0.7-1.6-2-2L217,50
	c-2.7-0.7-4.1-2-4.1-4c0-1.3,0.5-2.3,1.6-3.1c1-0.8,2.4-1.2,4-1.2c1.2,0,2.3,0.3,3.4,0.9c1,0.6,1.7,1.4,2.1,2.4l-2.3,1
	c-0.3-0.6-0.7-1-1.3-1.4c-0.6-0.3-1.3-0.5-2-0.5c-0.7,0-1.3,0.2-1.9,0.5c-0.5,0.3-0.8,0.8-0.8,1.3c0,0.8,0.8,1.4,2.3,1.7l2.1,0.5
	c2.8,0.7,4.1,2.1,4.1,4.2C224.2,53.6,223.6,54.6,222.5,55.4"/>
</svg>
