<?xml version="1.0" encoding="UTF-8"?>
<svg id="logo" viewBox="0 0 733 352">
        <path d="M46.29,175.51 C53.8940931,170.789885 62.6408687,168.231539 71.59,168.11 C83.82,168.11 87.52,175.21 87.52,185.68 L87.52,263.92 C87.52,272.7 91.8,276.92 100.62,276.92 L120,276.92 C128.82,276.92 133.11,272.67 133.11,263.92 L133.11,178.87 C133.11,151.67 122.01,131.28 83.32,131.28 C70.4207916,131.159589 57.6980407,134.28182 46.32,140.36 L46.32,77.43 C46.32,68.65 42.04,64.43 33.22,64.43 L13.86,64.43 C5.04,64.43 0.75,68.68 0.75,77.43 L0.75,263.92 C0.75,272.7 5.04,276.92 13.86,276.92 L33.19,276.92 C42.01,276.92 46.29,272.67 46.29,263.92 L46.29,175.51 Z" fill="#1D1D1B"></path>
        <path d="M219.23,167.56 C234.87,167.56 240.54,177.74 240.54,206.11 C240.54,234.48 234.87,244.62 219.23,244.62 C203.59,244.62 197.89,234.45 197.89,206.11 C197.89,177.77 203.56,167.56 219.23,167.56 Z M219.23,280.9 C271.84,280.9 286.08,250.3 286.08,206.11 C286.08,161.92 271.84,131.28 219.23,131.28 C166.62,131.28 152.35,161.89 152.35,206.11 C152.35,250.33 166.59,280.9 219.23,280.9 Z" fill="#1D1D1B"></path>
        <path d="M317,136.66 L304.18,140.07 C295.95,142.34 292.8,146.07 292.8,153.39 L292.8,159.91 C292.8,168.7 297.08,172.91 305.91,172.91 L317,172.91 L317,230.72 C317,264.14 331.5,280.87 371.91,280.87 C376.196339,280.903014 380.475955,280.524613 384.69,279.74 C391.569932,278.586321 396.550767,272.543648 396.37,265.57 L396.37,256.23 C396.37,248.84 390.66,244.34 384.14,244.34 L381.28,244.34 C366.79,244.34 362.5,238.08 362.5,227.02 L362.5,172.94 L384.69,172.94 C393.51,172.94 397.8,168.7 397.8,159.94 L397.8,148.27 C397.8,139.48 393.51,135.27 384.69,135.27 L362.48,135.27 L362.48,111.47 C362.48,102.68 357.36,96.75 345.42,99.87 L330.63,103.82 C320.38,106.67 316.98,109.82 316.98,117.99 L317,136.66 Z" fill="#1D1D1B"></path>
        <path d="M473.92,148.27 C473.92,139.48 469.67,135.27 460.85,135.27 L441.78,135.27 C432.96,135.27 428.71,139.51 428.71,148.27 L428.71,294.52 C428.71,307.81 420.44,312.35 412.2,313.19 C401.95,314.33 399.39,319.74 399.39,325.97 L399.39,338.97 C399.39,347.46 405.94,351.71 416.45,351.71 C445.77,351.71 473.92,336.41 473.92,297.9 L473.92,148.27 Z" fill="#1D1D1B"></path>
        <path d="M574.81,211.49 L574.81,242.94 C570.24,247.48 562.55,249.75 554.31,249.75 C544.65,249.75 537.8,243.49 537.8,233.02 C537.8,221.96 542.93,215.74 555.74,214.02 L574.81,211.49 Z M558,167.86 C570.23,167.86 574.8,171.22 574.8,177.74 L574.8,186.82 L548.88,189.38 C523.3,191.94 495.14,197.58 495.14,235.84 C495.14,257.11 507.37,280.9 543.51,280.9 C560.56,280.9 575.06,275.23 585.31,266.19 L586.45,268.19 C590.14,274.71 592.71,276.98 599.81,276.98 L605.81,276.98 C614.63,276.98 618.88,272.73 618.88,263.98 L618.88,184.84 C618.88,153.1 609.22,131.28 558,131.28 C543.160118,131.39106 528.409378,133.58583 514.18,137.8 C508.51,139.48 503.97,143.8 503.97,152.8 L503.97,160.45 C503.97,168.98 510.48,175.75 521.87,173.23 C525.87,172.36 542.93,167.86 558,167.86 Z" fill="#1D1D1B"></path>
        <path d="M733,144 C733,136.09 729,131.26 716.2,131.26 C699.72,131.26 682.08,138.62 674.98,145.43 C670.98,138.36 670.11,135.22 662.16,135.22 L655.06,135.22 C646.24,135.22 641.95,139.46 641.95,148.22 L641.95,263.92 C641.95,272.7 646.24,276.92 655.06,276.92 L674.39,276.92 C683.21,276.92 687.5,272.67 687.5,263.92 L687.5,176.92 C691.19,173.51 704.26,168.72 720.19,168.72 C728.19,168.72 733,164.18 733,155.72 L733,144 Z" fill="#1D1D1B"></path>
        <path d="M493.1,37.16 C476.37,6.89 427.28,0.26 427.28,0.26 C427.28,0.26 449.94,25.48 420.98,45.44 C402.68,58.03 395.43,74.39 403.27,92.26 C409.27,105.95 421.97,111.51 435.67,113.6 C432.15,106.83 431.27,97.05 433.87,87.02 C434.13,86.02 434.42,84.97 434.75,84.02 C438.59,89.96 444.89,93.21 451.04,91.71 C459.46,89.71 464.4,79.52 462.1,69.05 C461.574483,66.7790133 460.722274,64.5962804 459.57,62.57 C459.9,62.65 460.23,62.68 460.57,62.79 C471.08,65.79 476.16,81.5 471.92,97.9 C470.663774,102.867396 468.544924,107.575576 465.66,111.81 C483.7,106 495.7,91.45 499,78.49 C502.48,65 499.84,49.28 493.1,37.16 Z" fill="#FD3A5C"></path>
    </svg>