<svg width="350" height="261" viewBox="0 0 350 261" fill="none" xmlns="http://www.w3.org/2000/svg">
    <path d="M75.4576 0C114.116 0 143.729 6.93863 164.297 20.8159C184.865 34.4453 195.149 55.7568 195.149 84.7504C195.149 102.84 190.936 117.585 182.511 128.984C174.333 140.135 162.438 148.933 146.826 155.376C152.03 161.819 157.482 169.253 163.182 177.678C168.881 185.856 174.457 194.529 179.909 203.698C185.608 212.619 191.06 222.036 196.264 231.948C201.468 241.613 206.3 251.154 210.761 260.57H145.711C141.003 252.145 136.171 243.595 131.214 234.922C126.506 226.249 121.55 217.823 116.346 209.646C111.39 201.468 106.434 193.786 101.477 186.6C96.5213 179.165 91.5651 172.474 86.6089 166.527H57.9871V260.57H0V6.69082C12.6382 4.21274 25.6481 2.47809 39.0298 1.48686C52.6592 0.495621 64.8018 0 75.4576 0ZM78.803 49.4377C74.5902 49.4377 70.7492 49.5616 67.2799 49.8094C64.0584 50.0572 60.9608 50.305 57.9871 50.5529V120.435H74.3424C96.1496 120.435 111.761 117.709 121.178 112.257C130.595 106.805 135.303 97.5125 135.303 84.3787C135.303 71.7404 130.471 62.8194 120.806 57.6154C111.39 52.1636 97.3886 49.4377 78.803 49.4377Z" fill="#262626"/>
    <path d="M283.175 5.9574L145.557 260.57H211.788L349.01 5.9574H283.175Z" fill="#00E676"/>
</svg>
